<?xml version="1.0" encoding="UTF-8" standalone="no"?>
<svg
   width="20"
   height="20"
   version="1.1"
   id="svg142"
   sodipodi:docname="restart.svg"
   inkscape:version="1.2.1 (9c6d41e410, 2022-07-14)"
   xmlns:inkscape="http://www.inkscape.org/namespaces/inkscape"
   xmlns:sodipodi="http://sodipodi.sourceforge.net/DTD/sodipodi-0.dtd"
   xmlns="http://www.w3.org/2000/svg"
   xmlns:svg="http://www.w3.org/2000/svg">
  <defs
     id="defs146" />
  <sodipodi:namedview
     id="namedview144"
     pagecolor="#ffffff"
     bordercolor="#000000"
     borderopacity="0.25"
     inkscape:showpageshadow="2"
     inkscape:pageopacity="0.0"
     inkscape:pagecheckerboard="0"
     inkscape:deskcolor="#d1d1d1"
     showgrid="false"
     inkscape:zoom="40.7"
     inkscape:cx="9.5331695"
     inkscape:cy="10"
     inkscape:window-width="1920"
     inkscape:window-height="1017"
     inkscape:window-x="-8"
     inkscape:window-y="-8"
     inkscape:window-maximized="1"
     inkscape:current-layer="svg142" />
  <path
     d="M19.524 0h-1.88a.476.476 0 0 0-.476.499l.159 3.284A9.81 9.81 0 0 0 9.835.317C4.415.317-.004 4.743 0 10.167.004 15.597 4.406 20 9.835 20a9.796 9.796 0 0 0 6.59-2.536.476.476 0 0 0 .019-.692l-1.348-1.349a.476.476 0 0 0-.65-.022 6.976 6.976 0 0 1-9.85-.63 6.987 6.987 0 0 1 .63-9.857 6.976 6.976 0 0 1 10.403 1.348l-4.027-.193a.476.476 0 0 0-.498.476v1.881c0 .263.213.476.476.476h7.944A.476.476 0 0 0 20 8.426V.476A.476.476 0 0 0 19.524 0Z"
     fill="#1F3641"
     id="path140"
     style="fill-opacity:1;fill:#ffffff" />
</svg>
